<svg xmlns="http://www.w3.org/2000/svg" width="418" height="76" viewBox="0 0 418 76">
  <defs>
    <style>
      .cls-1 {
        fill: #fff;
        fill-rule: evenodd;
      }
    </style>
  </defs>
  <path id="_maiscodes_" data-name="&lt;maiscodes&gt;" class="cls-1" d="M47.609,29.2V24.012l-30.1,11.9v4.725l30.1,11.9V47.346L23.4,38.3Zm20.224-4.158A5.89,5.89,0,0,0,64.3,23.892a5.968,5.968,0,0,0-3.5,1.1,6.226,6.226,0,0,0-2.279,2.976v-3.3H52.452v31.9h6.836V36.083a13.531,13.531,0,0,1,.541-4.757,1.971,1.971,0,0,1,1.965-1.2,2.023,2.023,0,0,1,1.994,1.225,12.93,12.93,0,0,1,.57,4.728V56.563h6.75V36.083a12.924,12.924,0,0,1,.57-4.728,2.022,2.022,0,0,1,1.994-1.225,1.971,1.971,0,0,1,1.965,1.2,13.543,13.543,0,0,1,.541,4.757V56.563h6.836V38.59q0-9-1.581-11.849t-5.711-2.848a6.277,6.277,0,0,0-3.56.968,7.033,7.033,0,0,0-2.393,2.991A4.579,4.579,0,0,0,67.833,25.046ZM108.506,41.58v0.57a11.615,11.615,0,0,1-1.823,6.964,5.982,5.982,0,0,1-5.127,2.492A4.42,4.42,0,0,1,96.8,46.878a4.5,4.5,0,0,1,1.851-4.1q1.851-1.2,6.523-1.2h3.332Zm5.142-14.526q-3.148-3.162-10.924-3.162a32.336,32.336,0,0,0-6.038.541,28.8,28.8,0,0,0-5.611,1.681v7.121a27.2,27.2,0,0,1,5.853-2.407,22.221,22.221,0,0,1,5.8-.755,7.441,7.441,0,0,1,4.315,1.04,3.513,3.513,0,0,1,1.467,3.062v1.4h-5.782q-7.576,0-11.194,2.663T87.913,46.48q0,5.156,3.033,8.032t8.474,2.877a11.857,11.857,0,0,0,5.213-1.139A10.046,10.046,0,0,0,108.506,53v3.56H116.8v-18.2Q116.8,30.216,113.648,27.054Zm13,4.016h8.175V50.154h-10.4v6.409h29.11V50.154H143.17V24.662H126.65V31.07Zm8.175-12.191h8.345V9.138h-8.345v9.741Zm43.65,5.454a33.309,33.309,0,0,0-5.4-.442q-6.038,0-9.37,2.564a8.537,8.537,0,0,0-3.333,7.178,8.6,8.6,0,0,0,2.193,6.181q2.193,2.307,6.979,3.389l2.307,0.513q4.015,0.969,5.084,1.823a2.954,2.954,0,0,1,1.068,2.45,2.7,2.7,0,0,1-1.51,2.478,9.206,9.206,0,0,1-4.443.854,19.935,19.935,0,0,1-5.54-.826,25.983,25.983,0,0,1-5.625-2.393v7.292a42.776,42.776,0,0,0,6.124,1.5,36.185,36.185,0,0,0,5.9.5q6.493,0,9.727-2.464t3.232-7.391a9.525,9.525,0,0,0-2.118-6.527,12.413,12.413,0,0,0-6.68-3.483l-2.4-.534-0.317-.07q-6.091-1.442-6.087-3.741a2.609,2.609,0,0,1,1.424-2.407,8.7,8.7,0,0,1,4.215-.812,17.179,17.179,0,0,1,5,.755,19.131,19.131,0,0,1,4.8,2.236V25.658A31.312,31.312,0,0,0,178.475,24.334Zm42.337,30.6V49.5a12.089,12.089,0,0,1-8.925,3.442c-6.476,0-10.209-4.375-10.209-12.309s3.675-12.308,10.209-12.308a12.362,12.362,0,0,1,8.925,3.5V26.345a17.746,17.746,0,0,0-8.925-2.45c-9.8,0-15.751,6.242-15.751,16.742s5.892,16.742,15.751,16.742A17.432,17.432,0,0,0,220.812,54.929ZM243.269,23.9c-8.808,0-13.65,5.833-13.65,16.742s4.783,16.742,13.65,16.742,13.65-5.834,13.65-16.742S252.078,23.9,243.269,23.9Zm0,4.433c5.309,0,8.109,4.142,8.109,12.308s-2.8,12.309-8.109,12.309-8.108-4.142-8.108-12.309S237.961,28.329,243.269,28.329Zm26.6,12.308c0-8.167,2.625-12.308,7.642-12.308s7.759,4.142,7.759,12.308-2.742,12.309-7.759,12.309S269.868,48.8,269.868,40.637Zm15.4-11.9a9.118,9.118,0,0,0-8.517-4.842c-7.467,0-12.425,6.008-12.425,16.625,0,10.792,4.9,16.859,12.425,16.859a9.238,9.238,0,0,0,8.517-4.842v4.025h5.25V12.228h-5.25V28.737Zm37.1,9.042H305.1c0.642-5.95,4.142-9.45,9.159-9.45C319.393,28.329,322.251,31.6,322.368,37.779Zm5.25,1.517c0-9.625-5.075-15.4-13.125-15.4-9.1,0-15.05,6.533-15.05,16.742,0,10.442,5.892,16.742,15.808,16.742a29.219,29.219,0,0,0,11.142-2.45V49.737c-4.025,2.1-7.642,3.208-11.083,3.208-6.592,0-10.384-3.967-10.384-10.909V41.862h22.692V39.3Zm31.15-13.533A24.527,24.527,0,0,0,349.2,23.9c-7.759,0-11.959,3.5-11.959,9.567,0,4.958,2.8,7.525,8.692,8.692l1.983,0.408c4.609,0.933,7.175,1.4,7.175,5.075,0,3.325-2.566,5.367-7.291,5.367a23.719,23.719,0,0,1-10.675-3.033V55.4a33.455,33.455,0,0,0,10.558,1.983c8.109,0,12.717-3.85,12.717-10.033,0-4.783-2.742-7.758-7.934-8.75l-2.1-.408c-5.25-.992-7.816-1.575-7.816-5.25,0-3.15,2.333-4.667,7.058-4.667a17.8,17.8,0,0,1,9.159,2.625V25.762Zm9.915,3.442,24.209,9.1-24.209,9.042v5.192l30.1-11.9V35.912l-30.1-11.9V29.2Z"/>
</svg>
